Video
ID : 0
Format : MPEG-4 Visual
Format profile : Advanced Simple@L5
Format settings, BVOP : 2
Format settings, QPel : No
Format settings, GMC : No warppoints
Format settings, Matrix : Default (H.263)
Muxing mode : Packed bitstream
Codec ID : XVID
Codec ID/Hint : XviD
Duration : 1h 45mn
Bit rate : 2 070 Kbps
Width : 672 pixels
Height : 282 pixels
Display aspect ratio : 2.40:1
Frame rate : 25.000 fps
Color space : YUV
Chroma subsampling : 4:2:0
Bit depth : 8 bits
Scan type : Progressive
Compression mode : Lossy
Bits/(Pixel*Frame) : 0.437
Stream size : 1.52 GiB (94%)
Writing library : XviD 64

Audio
ID : 1
Format : MPEG Audio
Format version : Version 1
Format profile : Layer 3
Mode : Joint stereo
Codec ID : 55
Codec ID/Hint : MP3
Duration : 1h 45mn
Bit rate mode : Constant
Bit rate : 128 Kbps
Channel(s) : 2 channels
Sampling rate : 44.1 KHz
Compression mode : Lossy
Stream size : 96.3 MiB (6%)
Alignment : Split accross interleaves
Interleave, duration : 40 ms (1.00 video frame)
Interleave, preload duration : 500 ms








 
http://www.imdb.com/title/tt1509767/



Plot:
The hot-headed young D'Artagnan along with three former
legendary but now down on their luck Musketeers must unite
and defeat a beautiful double agent and her villainous
employer from seizing the French throne
and engulfing Europe in war.

















Source Used

FLOPPYDISK.............Thanks

iLLUMiNATi ........................Thanks


Reason for READNFO ...............Is 8 secs of cam audio is used to fill in a gap where line wasnt available


Part from that i just took my time with this one vids pretty deecent enough

Changed the colours abit ,sharpened ,then contrast


Sample included so check it out 1st


Enjoy





Greetz to IMAGiNE,Flawl3ss,BDK,Ez,CreWsaDe,TaRiQ786,ETRG,BHRG,iLLUMiNATi,ViSUALiSE,MiSTERE
